<svg width="300" height="300" viewBox="0 0 300 300" fill="none" xmlns="http://www.w3.org/2000/svg">
<path fill-rule="evenodd" clip-rule="evenodd" d="M226.116 40.6667C228.782 39.7362 233.401 38 233.401 38C238.529 77.0096 222.356 103.232 183.449 111.333C158.367 118.806 133.478 126.806 108.783 135.333C94.7255 144.058 84.5034 156.058 78.1162 171.333C58.8768 139.904 58.4492 103.5 92.7818 87.3333C114.949 75.5 175.949 58.1756 226.116 40.6667Z" fill="black"/>
<path fill-rule="evenodd" clip-rule="evenodd" d="M204.783 134C213.497 159.851 208.784 183.333 183.449 196.667C171.009 200.963 158.564 204.963 146.116 208.667C151.451 226 156.784 242 162.116 259.333C126.223 269.317 103.557 255.984 94.1161 219.333C90.8774 191.604 101.989 171.604 127.449 159.333C153.46 150.513 179.238 142.069 204.783 134Z" fill="black"/>
</svg>
