<svg width="400" height="400" viewBox="0 0 400 400" fill="none" xmlns="http://www.w3.org/2000/svg">
<g clip-path="url(#clip0_4_2)">
<path fill-rule="evenodd" clip-rule="evenodd" d="M-1.3335 -1.33334C132 -1.33334 265.333 -1.33334 398.667 -1.33334C398.667 132 398.667 265.333 398.667 398.667C265.333 398.667 132 398.667 -1.3335 398.667C-1.3335 265.333 -1.3335 132 -1.3335 -1.33334Z" fill="white"/>
<path fill-rule="evenodd" clip-rule="evenodd" d="M275.116 89.6667C277.782 88.7362 282.401 87 282.401 87C287.529 126.01 271.356 152.232 232.449 160.333C207.367 167.806 182.478 175.806 157.783 184.333C143.726 193.058 133.503 205.058 127.116 220.333C107.877 188.904 107.449 152.5 141.782 136.333C163.949 124.5 224.949 107.176 275.116 89.6667Z" fill="#0C0C0C"/>
<path fill-rule="evenodd" clip-rule="evenodd" d="M253.783 183C262.497 208.851 257.784 232.333 232.449 245.667C220.009 249.963 207.564 253.963 195.116 257.667C200.451 275 205.784 291 211.116 308.333C175.223 318.317 152.557 304.984 143.116 268.333C139.877 240.604 150.989 220.604 176.449 208.333C202.46 199.513 228.238 191.069 253.783 183Z" fill="#0C0C0C"/>
</g>
<defs>
<clipPath id="clip0_4_2">
<rect width="400" height="400" rx="80" fill="white"/>
</clipPath>
</defs>
</svg>
